<?xml version="1.0" standalone="no"?><!DOCTYPE svg PUBLIC "-//W3C//DTD SVG 1.1//EN" "http://www.w3.org/Graphics/SVG/1.1/DTD/svg11.dtd"><svg t="1556456396710" class="icon" style="" viewBox="0 0 1024 1024" version="1.1" xmlns="http://www.w3.org/2000/svg" p-id="1654" xmlns:xlink="http://www.w3.org/1999/xlink" width="280" height="280"><defs><style type="text/css"></style></defs><path d="M204.266 813.462h-18.899a8.895 8.895 0 0 0-8.894 8.894c0 4.912 3.982 8.896 8.894 8.896h18.899a8.895 8.895 0 0 0 0-17.79z m611.439 0H240.952a8.895 8.895 0 0 0-8.894 8.894c0 4.912 3.982 8.896 8.894 8.896h574.753a8.894 8.894 0 0 0 8.894-8.896 8.894 8.894 0 0 0-8.894-8.894z m-667.025 0H74.196a8.895 8.895 0 0 0-8.894 8.894c0 4.912 3.982 8.896 8.894 8.896h74.484a8.894 8.894 0 0 0 8.894-8.896 8.894 8.894 0 0 0-8.894-8.894z m778.196 0h-74.484c-4.908 0-8.894 3.982-8.894 8.894s3.981 8.896 8.894 8.896h74.484a8.894 8.894 0 0 0 8.894-8.896 8.893 8.893 0 0 0-8.894-8.894z m37.799 0h-1.111a8.896 8.896 0 0 0 0 17.79h1.111a8.896 8.896 0 0 0 8.896-8.896c-0.003-4.912-3.985-8.894-8.896-8.894z" fill="#040000" p-id="1655"></path><path d="M902.933 683.771a4.363 4.363 0 0 0-4.364-4.36h-13.104a4.363 4.363 0 0 0-4.367 4.36 4.362 4.362 0 0 0 4.367 4.354h13.104a4.357 4.357 0 0 0 4.364-4.354z m50.217-4.36h-13.1a4.363 4.363 0 0 0-4.367 4.36 4.362 4.362 0 0 0 4.367 4.354h13.103a4.36 4.36 0 0 0 4.365-4.354 4.363 4.363 0 0 0-4.368-4.36z m-54.686-22.606a4.37 4.37 0 0 0-6.175 0 4.352 4.352 0 0 0 0 6.164l9.264 9.244a4.373 4.373 0 0 0 6.177 0 4.353 4.353 0 0 0 0-6.164l-9.266-9.244z m38.599 38.522a4.379 4.379 0 0 0-6.179 0 4.353 4.353 0 0 0 0 6.164l9.267 9.246a4.372 4.372 0 0 0 6.176 0 4.353 4.353 0 0 0 0-6.164l-9.264-9.246z m-17.755-49.694a4.365 4.365 0 0 0-4.365 4.359v13.076a4.361 4.361 0 0 0 4.365 4.354 4.361 4.361 0 0 0 4.367-4.354v-13.076a4.364 4.364 0 0 0-4.367-4.359z m0 54.482a4.363 4.363 0 0 0-4.365 4.355v13.076a4.362 4.362 0 0 0 4.365 4.357 4.362 4.362 0 0 0 4.367-4.357V704.47a4.362 4.362 0 0 0-4.367-4.355z m17.755-27.902l9.264-9.244a4.353 4.353 0 0 0 0-6.164 4.372 4.372 0 0 0-6.176 0l-9.267 9.244a4.353 4.353 0 0 0 0 6.164 4.375 4.375 0 0 0 6.179 0z m-35.511 23.114l-9.263 9.246a4.352 4.352 0 0 0 0 6.164 4.37 4.37 0 0 0 6.175 0l9.266-9.246a4.353 4.353 0 0 0 0-6.164 4.378 4.378 0 0 0-6.178 0z" fill="#F5D421" p-id="1656"></path><path d="M833.904 445.326m-11.457 0a11.457 11.457 0 1 0 22.914 0 11.457 11.457 0 1 0-22.914 0Z" fill="#F0841B" p-id="1657"></path><path d="M738.068 134.422m-11.457 0a11.457 11.457 0 1 0 22.914 0 11.457 11.457 0 1 0-22.914 0Z" fill="#F5D321" p-id="1658"></path><path d="M810.777 330.273h-10.988v10.968c0 3.026-2.461 5.482-5.495 5.482s-5.495-2.456-5.495-5.482v-10.968H777.81a5.489 5.489 0 0 1-5.492-5.483 5.49 5.49 0 0 1 5.492-5.484h10.989v-10.968c0-3.029 2.461-5.484 5.495-5.484s5.495 2.456 5.495 5.484v10.968h10.988c3.032 0 5.495 2.455 5.495 5.484 0 3.027-2.459 5.482-5.495 5.483z" fill="#52B3E6" p-id="1659"></path><path d="M145.199 165.162a4.364 4.364 0 0 0-4.367-4.36h-13.101a4.363 4.363 0 0 0-4.367 4.36 4.363 4.363 0 0 0 4.367 4.357h13.101a4.363 4.363 0 0 0 4.367-4.357z m50.218-4.36h-13.1a4.363 4.363 0 0 0-4.367 4.36 4.363 4.363 0 0 0 4.367 4.357h13.1a4.363 4.363 0 0 0 4.368-4.357 4.364 4.364 0 0 0-4.368-4.36z m-54.687-22.607a4.37 4.37 0 0 0-6.175 0 4.353 4.353 0 0 0 0 6.165l9.264 9.244a4.372 4.372 0 0 0 6.176 0 4.352 4.352 0 0 0 0-6.164l-9.265-9.245z m38.599 38.523a4.375 4.375 0 0 0-6.176 0 4.353 4.353 0 0 0 0 6.164l9.264 9.246a4.372 4.372 0 0 0 6.176 0 4.353 4.353 0 0 0 0-6.164l-9.264-9.246z m-17.755-49.694a4.365 4.365 0 0 0-4.368 4.359v13.076a4.364 4.364 0 0 0 4.368 4.357 4.362 4.362 0 0 0 4.367-4.357v-13.076a4.363 4.363 0 0 0-4.367-4.359z m0 54.482a4.364 4.364 0 0 0-4.368 4.358v13.076a4.364 4.364 0 0 0 4.368 4.357 4.362 4.362 0 0 0 4.367-4.357v-13.076a4.363 4.363 0 0 0-4.367-4.358z m17.755-27.902l9.264-9.244a4.355 4.355 0 0 0 0-6.165 4.372 4.372 0 0 0-6.176 0l-9.264 9.245a4.353 4.353 0 0 0 0 6.164 4.372 4.372 0 0 0 6.176 0z m-35.511 23.114l-9.263 9.246a4.352 4.352 0 0 0 0 6.164 4.37 4.37 0 0 0 6.175 0l9.265-9.246a4.352 4.352 0 0 0 0-6.164 4.376 4.376 0 0 0-6.177 0z" fill="#F5D421" p-id="1660"></path><path d="M289.607 190.924m-11.457 0a11.457 11.457 0 1 0 22.914 0 11.457 11.457 0 1 0-22.914 0Z" fill="#F5D321" p-id="1661"></path><path d="M126.619 521.267m-11.457 0a11.457 11.457 0 1 0 22.914 0 11.457 11.457 0 1 0-22.914 0Z" fill="#F5D321" p-id="1662"></path><path d="M197.478 683.021l-8.946 6.381 6.369 8.929a5.491 5.491 0 0 1-1.288 7.657 5.494 5.494 0 0 1-7.659-1.274l-6.369-8.929-8.946 6.382a5.49 5.49 0 0 1-7.658-1.273 5.486 5.486 0 0 1 1.289-7.653l8.947-6.384-6.37-8.93a5.488 5.488 0 0 1 1.289-7.655 5.492 5.492 0 0 1 7.659 1.272l6.37 8.93 8.946-6.381a5.491 5.491 0 0 1 7.658 1.273c1.756 2.464 1.179 5.892-1.291 7.655zM100.818 296.375l-8.946 6.381 6.369 8.929a5.49 5.49 0 0 1-1.288 7.657 5.494 5.494 0 0 1-7.659-1.271l-6.369-8.932-8.946 6.385a5.493 5.493 0 0 1-7.658-1.273 5.49 5.49 0 0 1 1.289-7.656l8.947-6.382-6.37-8.929a5.49 5.49 0 0 1 1.289-7.656 5.49 5.49 0 0 1 7.659 1.273l6.37 8.93 8.946-6.381a5.488 5.488 0 0 1 7.658 1.273c1.756 2.462 1.179 5.89-1.291 7.652z" fill="#52B3E6" p-id="1663"></path><path d="M755.859 730.361l-46.173-402.41c-2.187-19.051-19.442-32.729-38.536-30.549l-49.077 5.607-5.328-60.854c-1.674-19.099-18.497-33.208-37.577-31.512L314.38 234.167c-19.07 1.696-33.179 18.552-31.503 37.652l35.367 403.5c1.673 19.1 18.497 33.211 37.567 31.516l58.145-5.162 7.675 66.865c2.183 19.047 19.431 32.723 38.531 30.533l265.077-30.263c19.101-2.177 32.81-19.394 30.62-38.447" fill="#EEEDEC" p-id="1664"></path><path d="M652.273 268.183H386.651c-19.138 0-34.645 15.503-34.645 34.647v404.207c0 19.137 15.507 34.646 34.645 34.646h265.624c19.138 0 34.644-15.51 34.644-34.646V302.83c-0.002-19.144-15.508-34.647-34.646-34.647" fill="#FFFFFF" p-id="1665"></path><path d="M675.37 273.955l-6.758-1.5c2.831 1.533 5.482 3.336 7.771 5.554l-1.013-4.054z m-25.985-5.772l-25.984-5.776-8.242-28.869H386.651c-38.268 0-69.292 31.021-69.292 69.292v384.959l34.647 19.248V302.83c0-19.144 15.507-34.647 34.645-34.647h262.734z m66.403 57.74l-28.973-24.142c0.012 0.353 0.102 0.69 0.102 1.049v404.207c0 19.137-15.506 34.646-34.644 34.646H386.651c-4.732 0-9.226-0.957-13.331-2.676l1.782 2.676 40.42 5.777 10.501 28.867h226.25c38.266 0 69.29-31.027 69.29-69.291v-377.07l-5.775-4.043z" fill="#040000" p-id="1666"></path><path d="M675.37 707.037v-11.549c0 12.754-10.345 23.094-23.097 23.094H386.651c-12.755 0-23.097-10.34-23.097-23.094v11.549c0 12.752 10.342 23.1 23.097 23.1h265.624c12.75 0 23.095-10.348 23.095-23.1m68.964 24.641l-1.442-11.547c1.458 12.699-7.681 24.178-20.416 25.627L457.4 776.031c-12.333 1.408-23.426-7.144-25.443-19.222l1.194 10.406c1.457 12.699 12.96 21.816 25.691 20.361l265.081-30.269c12.73-1.453 21.872-12.93 20.411-25.629" fill="#040000" p-id="1667"></path><path d="M500.137 424.647c-8.464 0-16.093 3.5-21.582 9.106-5.485-5.607-13.114-9.106-21.581-9.106-16.686 0-30.209 13.52-30.209 30.205 0 38.844 43.158 73.373 51.79 73.373 8.636 0 51.79-43.159 51.79-73.372 0.001-16.686-13.525-30.206-30.208-30.206" fill="#EB7172" p-id="1668"></path><path d="M478.281 523.32c-9.667-4.336-46.788-35.287-46.788-70.243 0-12.977 10.555-23.528 23.533-23.528 6.35 0 12.321 2.526 16.803 7.096l6.726 6.886 6.728-6.886c4.479-4.569 10.452-7.096 16.801-7.096 12.98 0 23.535 10.553 23.535 23.528 0 25.773-36.927 64.541-47.338 70.243" fill="#EB7172" p-id="1669"></path><path d="M767.386 729.043L721.21 326.637c-1.807-15.716-11.308-28.675-24.316-35.593-5.223-19.795-23.191-34.413-44.619-34.413H629.61l-1.359-15.492c-2.229-25.474-24.653-44.292-50.093-42.026l-264.784 23.529c-25.434 2.255-44.243 24.729-42.012 50.199l35.37 403.5c1.763 20.203 16.27 36.174 34.872 40.803 4.611 20.648 23.013 36.087 45.049 36.087h21.546l1.907 16.618c2.911 25.402 25.917 43.636 51.37 40.722L726.561 780.3c25.46-2.905 43.737-25.855 40.825-51.257M340.456 302.83v388.91c-5.869-3.724-10.042-9.979-10.703-17.445l-35.361-403.498c-1.123-12.731 8.285-23.969 21-25.104l264.791-23.518c12.717-1.135 23.929 8.27 25.049 21.002l1.182 13.454H386.651c-25.517 0-46.195 20.686-46.195 46.199m46.195 427.307c-12.76 0-23.097-10.348-23.097-23.1V302.83c0-12.759 10.336-23.099 23.097-23.099h265.624c12.752 0 23.097 10.34 23.097 23.099v404.207c0 12.752-10.345 23.1-23.097 23.1H386.651z m337.271 27.174L458.836 787.58c-12.726 1.455-24.224-7.662-25.68-20.361l-1.606-13.987h220.725c25.508 0 46.19-20.683 46.19-46.191v-375.11l45.869 399.749c1.454 12.697-7.681 24.174-20.412 25.631" fill="#161B1E" p-id="1670"></path><path d="M521.229 372.727a17.215 17.215 0 0 1 12.207 5.054 17.226 17.226 0 0 1 5.048 12.205 16.11 16.11 0 0 1-0.525 4.113 99.165 99.165 0 0 1 8.58 12.525c6.313 10.863 10.948 23.296 13.75 36.875l-18.308 3.765c-2.354-11.47-6.297-22.071-11.641-31.18a73.376 73.376 0 0 0-6.052-9.026c-0.954 0.187-2.011 0.268-3.061 0.268a17.2 17.2 0 0 1-12.201-5.054 17.21 17.21 0 0 1-5.052-12.193 17.203 17.203 0 0 1 5.021-12.253 17.241 17.241 0 0 1 12.234-5.099z m95.114 135.93a20.548 20.548 0 0 0-14.558 6.021 20.592 20.592 0 0 0-6.023 14.562 20.538 20.538 0 0 0 6.023 14.565 20.546 20.546 0 0 0 14.561 6.027 20.573 20.573 0 0 0 14.565-6.027 20.57 20.57 0 0 0 6.014-14.565 20.587 20.587 0 0 0-6.019-14.562 20.562 20.562 0 0 0-14.562-6.021h-0.001z m0-14.102a34.612 34.612 0 0 1 24.532 10.155 34.614 34.614 0 0 1 10.153 24.534c0.002 16.457-11.562 30.646-27.673 33.981v13.482c0 42.314-34.686 76.988-76.99 76.988-42.303 0-76.979-34.675-76.979-76.984v-9.725c-22.16-1.57-41.074-10.5-54.735-25.929-14.286-16.108-22.692-39.147-22.692-68.137 0-4.909 0.259-9.81 0.788-14.624l14.012 1.403c-0.435 4.455-0.525 8.753-0.608 13.221 0 25.397 7 45.282 19.086 58.862 12.356 13.928 30.221 21.367 51.329 21.367 21.106 0 38.978-7.439 51.321-21.367 12.084-13.58 19.092-33.545 19.092-58.945-0.081-4.466-0.17-8.765-0.612-13.226l14.011-1.402c0.532 4.814 0.792 9.802 0.792 14.627 0 28.99-8.315 52.029-22.684 68.22-13.664 15.429-32.583 24.357-54.826 25.938v9.715c0 34.6 28.287 62.889 62.881 62.889 34.595 0 62.884-28.289 62.884-62.889v-13.496c-16.1-3.348-27.642-17.528-27.667-33.979-0.094-19.1 15.409-34.689 34.587-34.689v0.008h-0.002z m-223.676-51.061c2.801-13.575 7.523-26.008 13.745-36.871a98.927 98.927 0 0 1 8.583-12.525 15.966 15.966 0 0 1-0.519-4.113 17.246 17.246 0 0 1 5.04-12.205 17.242 17.242 0 0 1 12.198-5.054 17.21 17.21 0 0 1 12.205 5.054 17.225 17.225 0 0 1 5.051 12.205 17.249 17.249 0 0 1-5.051 12.21 17.272 17.272 0 0 1-12.205 5.048 18.81 18.81 0 0 1-3.063-0.26c-2.189 2.792-4.204 5.856-6.043 9.02-5.338 9.189-9.283 19.704-11.647 31.175l-18.31-3.684h0.016z" fill="#161B1E" p-id="1671"></path><path d="M431.394 399.864c-5.39 0-9.759-4.375-9.759-9.766a9.759 9.759 0 0 1 9.759-9.759c5.392 0 9.761 4.369 9.761 9.759a9.743 9.743 0 0 1-10.007 9.661l0.246 0.105zM521.492 399.141c-5.392 0-9.76-4.375-9.76-9.765s4.368-9.754 9.76-9.754c5.391 0 9.762 4.364 9.762 9.754a9.764 9.764 0 0 1-2.979 6.934 9.789 9.789 0 0 1-7.025 2.739l0.242 0.092zM616.136 550.289c-11.55 0-20.902-9.379-20.902-20.916 0-11.549 9.354-20.917 20.902-20.917 11.558 0 20.916 9.368 20.916 20.917a20.909 20.909 0 0 1-6.381 14.848 20.953 20.953 0 0 1-15.053 5.867l0.518 0.201z" fill="#F6C268" p-id="1672"></path></svg>